# xmcd
#
# Track frame offsets: 
#        150
#        16010
#        32459
#        47685
#        64098
#        74873
#        82775
#        111545
#        124584
#        135241
#        148128
#        158968
#        170821
#        183569
#        193303
#        200986
#        209253
#        224009
#        234069
#        244034
#
# Disc length: 3444 seconds
#
# Revision: 1
# Processed by: cddbd v1.5.2PL0 Copyright (c) Steve Scherf et al.
# Submitted via: ExactAudioCopyFreeDBPlugin 1.0
#
DISCID=2f0d7214
DTITLE=Various Artist - 100 Instrumentale Klassiekers - Disk 4
DYEAR=2008
DGENRE=Instrumental
TTITLE0=PAUL DE SENNEVILLE and OLIVIER TOUSSAINT - Dolannes melodie
TTITLE1=JEAN PHILIPPE AUDIN and DIEGO MODENA - Song of Ocarina
TTITLE2=CONQUISTADOR - Argentina
TTITLE3=THE ABDUL HASSAN ORCHESTRA - Arabian ffair
TTITLE4=DON RENO - Dueling banjos
TTITLE5=HARRY SACKSINIONI - Elixer
TTITLE6=ANDRÉS SEGOVIA - Asturias [from 'Suite Española, op. 47']
TTITLE7=FRANCIS GOYA - Nostalgia
TTITLE8=JOHNNY PEARSON - A lover's concerto
TTITLE9=RON GOODWIN - Elisabethean serenade
TTITLE10=FRANCIS LAI - Theme from 'Love Story'
TTITLE11=RICHARD CLAYDERMAN - Ballade pour Adeline
TTITLE12=FOCUS - House of the king
TTITLE13=THE CHAMPS - Tequila
TTITLE14=LEROY ANDERSON - The typewriter
TTITLE15=THE VENTURES - Hawaii Five-O
TTITLE16=THE TORNADOS - Telstar
TTITLE17=DICK DALE and his DEL-TONES - Misirlou
TTITLE18=THE CHANTAYS - Pipeline
TTITLE19=THE JOKERS - Tabou
EXTD=
EXTT0=
EXTT1=
EXTT2=
EXTT3=
EXTT4=
EXTT5=
EXTT6=
EXTT7=
EXTT8=
EXTT9=
EXTT10=
EXTT11=
EXTT12=
EXTT13=
EXTT14=
EXTT15=
EXTT16=
EXTT17=
EXTT18=
EXTT19=
PLAYORDER=
